<svg width="232" height="177" viewBox="0 0 232 177" fill="none" xmlns="http://www.w3.org/2000/svg">
<g filter="url(#filter0_d)">
<ellipse cx="116" cy="84.5" rx="111" ry="83.5" fill="#B81515" fill-opacity="0.88"/>
<path d="M116 168.5C146.75 168.5 174.608 159.125 194.789 143.943C214.971 128.761 227.5 107.75 227.5 84.5C227.5 61.2501 214.971 40.2388 194.789 25.057C174.608 9.87534 146.75 0.5 116 0.5C85.2501 0.5 57.3922 9.87534 37.2106 25.057C17.0287 40.2388 4.5 61.2501 4.5 84.5C4.5 107.75 17.0287 128.761 37.2106 143.943C57.3922 159.125 85.2501 168.5 116 168.5Z" stroke="black" stroke-opacity="0.25"/>
</g>
<defs>
<filter id="filter0_d" x="0" y="0" width="232" height="177" filterUnits="userSpaceOnUse" color-interpolation-filters="sRGB">
<feFlood flood-opacity="0" result="BackgroundImageFix"/>
<feColorMatrix in="SourceAlpha" type="matrix" values="0 0 0 0 0 0 0 0 0 0 0 0 0 0 0 0 0 0 127 0"/>
<feOffset dy="4"/>
<feGaussianBlur stdDeviation="2"/>
<feColorMatrix type="matrix" values="0 0 0 0 0 0 0 0 0 0 0 0 0 0 0 0 0 0 0.25 0"/>
<feBlend mode="normal" in2="BackgroundImageFix" result="effect1_dropShadow"/>
<feBlend mode="normal" in="SourceGraphic" in2="effect1_dropShadow" result="shape"/>
</filter>
</defs>
</svg>
